<mxfile host="app.diagrams.net" agent="Mozilla/5.0 (Windows NT 10.0; Win64; x64) AppleWebKit/537.36 (KHTML, like Gecko) Chrome/131.0.0.0 Safari/537.36" version="25.0.3">
  <diagram name="ページ1" id="Qga3IwSi_ZF0PJNd4FxB">
    <mxGraphModel dx="1219" dy="850" grid="1" gridSize="10" guides="1" tooltips="1" connect="1" arrows="1" fold="1" page="1" pageScale="1" pageWidth="827" pageHeight="1169" math="0" shadow="0">
      <root>
        <mxCell id="0" />
        <mxCell id="1" parent="0" />
        <mxCell id="kbRRC70znKYidf6P-xsW-2" value="" style="shape=image;verticalLabelPosition=bottom;labelBackgroundColor=default;verticalAlign=top;aspect=fixed;imageAspect=0;image=data:image/png,iVBORw0KGgoAAAANSUhEUgAAAJYAAACWCAYAAAA8AXHiAAAACXBIWXMAAA7EAAAOxAGVKw4bAAAgAElEQVR4nO2dd3xUVdrHv+fOTHpCSUhIJoROKAoIOhQFrIAVXN3V17XXLb66bnMVFRUBXVfXuu6771oW2X11XVQUUbHRVBg6hBaQmiEBQggJpM7c8/5x752WKXcmkxDc/fkZjcncc8+993ef8/Qj+DeCw+EASALSgBH6r88Ehug/jwYGxDl8KbBC/3kzsFr/eS1QBzQ5nc44hz71IE72BNoaDocjCygETgNGAlOBFKConaawD2gA3gfWACVAmdPprGmn858UfO+I5XA4koAs4BLgGqAf0AdQ9M/JhKp/dgE7gbeBhUCN0+lsOpkTSzS+F8RyOBxWNIl0GTAFGIq25J0KaAI2AvOBBUCJ0+l0n9wptR6nLLF0fakQOBf4DZpulHISp5QINKDpak8Di9GWzJM6oXhxyhFLX+rOQZNM1wE5J3dGbYZK4B9okmz5qbZUnjLE0gl1BXAbcCFgPbkzaje4gc+BV4EPThWCdWhi6ctdV+Ba4H7az5LrqNgHPAW8BVR15GWywxJLV8gnAn8kft/S9xWlwH3Aoo6q6Hc4YulSaiwwDY1YbbfkCYFFUbDZbHTu3IVu3bpRUFBARkYG2dnZpKamkZKSjNVqJSMjg9S0NI5VH6P2eC3Nzc0cq67m2LFqampqqKyspLy8gupj1XjcbjweT5tNW4cbWATMBL7paNKrQxHL4XAUAT8H7kbzjicUiqLQuUsXioqKKC4upn///vTu1ZtevXuRbEtCURQURUEIEdOdkVKielQ8qoea2lr27y9jy9Yt7CgtpWz/fvbt20dtbS2qqib6kkDz6r8EvOx0Ove1xQniQYcglsPhyEBTzGegOTMTAiEEnTp1om+//owaNYozzhiOvbCQzMxMrFYroCIwbkLb+E6b3W6qjx1jz+7drF69hrXr1rJn925qjh1L9Kl2AQ+jKfjHEz14rDipxNKXvRFo4nxyIsYUQtCla1eGnj6UCRMmMGLkCLp2zcZiURBC+7v+TUB6f2qrWyH9f5YSjyo5dOgQa9asZumSJWzcuJGaY8eQUoYdI0Z8gqZGrD2Zy+PJJtZU4BWge2vHstlsDBs+nIsmTsThcNAtOwebzQpIfQmSCCEQwtLaU7UK/ouhx+3m8OHDLF+2nAULFlBauj1RBKsAfup0Ot9PxGDx4KQQy+FwdAdmAzfSyjUoOyeHiRMncfElF9O7d28sVo04iv58hBD6w1IBgRAnO1yoSTF/+gigvqGBTRs38t6777Jy5Urq6upaexoVmAM84HQ6K1o7WKxod2I5HI4+wN/RUlTiRvfu3Zk0eTJTpk6le/fu2oX4XY2mO/l+YUgC31J48hBKJkkkSPB4VLZv3857785jyZIl1NbWtvZ0K4AfO53OXa0dKBa0213W9anJaKTqGu84WVlZ/OCqq7liyhXkduuGYrUgAKVj2CGthrZoS9zNbnbs2Mnf577JsqVLaW5ubs2wVcCPgU/aS+9ql6ehh2N+i+Y9z4hnjPT0dC648CJuuukmuudrEkrxkz7mJZFPy5HBl6+LEikl9fUN1NXX0VDfQGNjIyCxWCxYbTaSbDaSk5PJzMr0jiCUFjLSb2Cf7RkLPEhUj4ctm7fwv3/5X9auXdMa/9hxNK/979sjLNTmxNJJ9TxwJ3HoU1arlTPPOovbb7udgYMGoijaEIJAMsW2xEkkcKKunqNHj7Jnzx727d1L2f4y9u3bR1VVFfX1dTQ0NtLc1ERzsxuQKIqCxWLBYrWSZLORlp5OWmoq3fPzKSoqIjcvj/79B1DQvTtZnbJIstk0qsV5l1X9Og2iL178Fa+//jr798XtrlKBvwD3tjW52pRYDocjDS0kc2c8x3fvns+NN93IpMmTSEtN895kA9GIFawkNzY2csDlYv369axds4Zdu3dTfuAAjY2NCXFeCiFQFAsZGenY7YUUDyxmxBkjOH3oULKzu5Jks8U9tpQSieTgoYO8+tfX+GzRIhoaGuId7i/AfU6ns9UWQji0GbEcDkc/YB5aAl5MkspisTDh3HO5/Y476dmrCEUo3gHCmeMGsYLJ1NTYxLZt21i6dCkrV66gbP9+GhsbE+k3ighFUUhLS6Nff81JO3bsOfTt2xubNfZIlYqq6V9ula+XL+fPf3qFvXv3xjMtFS1F+iqn07kzngGioU2IpVt+HxNH8Dg7O5s77riLSZMmk5KaDEIiAnSXlgimSENDI7t27+arr75k8VeLKS8/gLt1ym/CkJKSQq/evZk0cRLnnX8eubm5WhjJxLFS/8d4TysqKnj91Vf55JNPaGqKa2UrBS5uC4sx4cTSJdVHxEgqIQSDBg9m2rRp9OzVC4vQPOXG3yJBAqqUHK+tZfnyr/lg/ny2bNkc781uN3Tq1Ilx48czdeqVDBxYHFWKBRMLwN3YxMeffMLLL7/EsfjCRKXApYmWXAkllq5TfYuWcx4Tzj33XO65914KCgpMvr0+SVVdXc3HCxfy4Ycfsm/v3vbILEgoUlNTGTVqND+46gecMfwMkpLC6WLGFQfeIVWVrFy5kj888wfK9u+PZwobgTGJ1LkSRizd+nsRuJ0YdCqbzcY11/4Xt99xGynJKaYnJKXkRH09n3z8CW/OmcPBgxXtpje1FWw2GyNGjOS2229jyJAhWC3mwk8SUFWVioOHePyxR9mwfn2s90IF/gr8d6KsxYQEzvxcCncRA1lTUlK47bbbuOnmm0lOTorq5DSklLu5ma+/+ZbZs2cz//33OH681d7pDgFVVXG5yli0aBGuAwcoLOxBly6do6oChk8vIzMDx1kOjlYfZdeuXbGQS6DVXHaz2+2fuVyuVov8VhNL96g/APyaGEiVkZHBT3/6M374wx/p/p7ILgOJJqUqKg7ywvMv8L9//V8qyg+0dvodEh6Phx2lpSxevBghFHr17kVScnKImyvxv+UCyMhI56yzzqKxsYktWzbHKrlGAM12u32py+Vq1TW0mlh2u30ymrRKNntMp06deGT6dCZOnhgg7kMRy0huaW528/nnn/PY9OmsW7f2lNOj4kF9fT2rVq1i44aN9OnXl+ycnIBog3/qj+//wZaUxIgRI2lqbmLz5i1IadpHJwAHsM7lcrVKmW8VsRwOx/nAv4BMs8dkZWUx44mZjB4zBkUJdCOE8lJL4NDBQzz3xz/yxmuvUVPzva5MbwFNSlewePFiUtMy6Nu3L1ar/2MLJpq+NFosDBs+HFVVKdm0KRbJlQRcYbfbnS6Xa3e8846bWHrqy1+AvmaPyerUiUcff5wxo0ahCM07peVICW86sP/Sp6oqG9Zv4KGHprF6lbOtUntPCTQ2NLDy228oP1DBkCFDSEtLp+V7GLgsWiwWhg8fTnNzMyUlJbGQKxkottvtH7lcrriyUeMmlt1ufxGtpN0U0tPTuf/++5kwfnyQOA8NVZV8vHAhs2bPoqK8PN5pfq8gpeS773aydu06Bg0eTHZ2V119CB3kFmie/6HDhnLiRD1bNm+O5XSFQI7L5Zofz1xjJpbD4cBut08FZmFSWU9KSuKOO+/ksksvNWVC19fXM3fOm7z80ovUnTgR6xS/96isrGTZsmXY7YX06tkzgtUovcvioEGDOeAqZ8+emFa3oXa7faPdbt8WqzIfM7HsdvsItNJvU3qVxWLh5ltu4cfXXYfNZotqOtfW1vL8H5/j7bff+rdQ0ONFfV0d33z7DV2ys+nbr19QWCjYWhQkpaQwdOhQtm3bFssKINB6Y3zlcrliWjZiIpbuWniWGLI/x48fzz333ENysmY0hiOWBE6cqOP3T/2eTz/95N9anzKL5uZmVq9aRefOXSguHuinYgTfY+3/09LTGT5sOM6VK2MJ/2QAPe12+3yXy2XaeRoTsex2+7XAg2aP69evH7NmzyIjwy8hLgyxjp84wROPz+DLL7845T3o7Qm3243T6SQtNY0hQwaHub++32VmZVLUsydLl8SUldoP2OxyuTaZPcA0sfRi0jmY7O6SlZXFgw8+QN++fQNyE4IvXKKTasYMFi/+yux0/gM/qKqHtWvXkJaWzqAhg0EEZ4MIr3qvCEGB3U56ejqrV62KZWU4w263v+9yuUyJOlPE0pfABzFpBVqtVm67/XYmTrwIRSgQgVi1NbX8/vdP8dWXX5oZ+j8IA1VVWbNmDV26dKV4QDGKEsFaFILeffpSUVHBdztN+0G7oHnlPzejyJsilt1uH4tWxm0qBfKcc8bx85//jCSbleCL80/Iq29o4OWXXubjhQvjWv4sFgs5Od0osNuxWC00NzWdsrpZaloaebl5dO3aFcWi0BRHMqKqqqxbt5a8vO7069cvoqFks1np268vK779NhZ96wxgscvlippCEdVdoHd9mY/W0zMqcnJyePmll+nZqyeh0jyEEFolipT88+23efGFF2K2/tIzMrj88iuYPHky3fLyyMzIoO7ECaqrj7JkyRLmzZvHoYMHYxrzZEAIQZ++ffnRtf/FmSNHkpWZicVqoa6ujr179vDRRwv54vPP9GIO88jq1ImnnnyK4SPOCHqtZcBPEliyeDEPP/RwLPrWQmBKtC43USWW3W4/H5iOiVQYRbFw109+wtixo7VwjVACPOtCCC07wSP56ssvefYPf4i5rCm/oICZs55kypQpZHfLJjU1BYtFIS0liS6dOzN8+DDOP+98qo8dY/fu3R3WEEhKTuZH11zDtEce4fTTTiMrM5PkJK0CKC01lfz8fCZMGE9Rr16scjpjSlpsbGxk48YNjB4zlqysLEIJLuNXPQoLOXy4ku3bt5sdvjfwtcvliph1GpFYDoejM/AyJht1nHb66dz987tJSUkmkjDct3cvTzwxg+rqajPDepGcksJDDz/MmWeN1PowIP0+BgQZGZmMGTMGCWzauLHDkSspKYm7fvozbrzxRlJTUjCc50aGhzdzFujZqxeKxcKa1atjuo6amhoOHDjAuHHjselFHKGcEIoi6N2nH8uXLzNbHKsARbr7IWw1R0Ri2e328WgdTKIiLS2dBx6cRu/evXxWYKCfDoATdXU88sjD7Nyxw8ywARg9ejQ333wzikVzBgopUESAzeM9oWK1Mmz4cKSEkpJNHUb3Sk1N5d5f3scPr74am9Xqi5nqcVMDQkjQJX7vPn1ZvnwZR48ejelcrrIy3B4PI0aO8Kt79FfqtU96ZgaZnTrxzfLlZu9TLzSn6XfhvhBtebvf3CXA1CunMnTo0IhKm9vt4dW//pX169aZHTYAZ589DqtFQZEgTLy8VquVW265hZtuvllvW3RykZyczH/fcy9Tpkw1WQeptYXPzEhn9OixMZ9PVVX+9c4/WeVcpetU4SucLrzgQsaefU4sw0fkRlhiORyOc4DxZs6Qn1/A1T/6EVabQmB+ggYJeKTkm2+/5d1588wM2XKiFgu5ebkxH2e1Wbnhxpu4/oYbvMWuJwNWm41bbr2VK664HEsLP1NoCHz1ST169IjrvA0NDTz/3HNUVlaiKQ+hzgNJNhs33XQjmZmmM6DG6xwJiZB3Wk81nobJNo0/uvYa8vK6EZTvqYsV7T2prDzCiy++EHeRpSIEySGzKMPBR+6kJBu33XYb11x77UlpCmJIzhuuvx6b1RqwEEWGj1iZmXF1JgBgz549vP7a6zS73WGJpQgYUNyfSZNNtymzAtN0rrRAuFf4HLSW11HRq3dvrpw6FUUoIar/NCVL9ajMnTu3NaXhCCGwKMEZk5EQ+D2rzcZdP/kpU6Ze2a7kslqt3HDjjdxw041xL8eJmO1HCxawZvXqiN9JsiZxww03kpXVyeywF6JxpQVaEEv3sk/BhLSyWCz8+PrrNcsGQiqGAKU7Sln40YJWW2fh42At3/9QampychJ333MPF02a1C7LosVq4fobbuCWW2+No/I5MGmvtS9DU2Mjf37lFY4dO6Z3tAmNbrnduGLqFLPnswJTdM4EINTdLUTb8SEq+vTty/jxEwB/fcD3URE0ezz8/c25HG99nyftZgjNYvJmnUYkVuCMFCA9LZVf/OI+Jpx7bqvnEwmKonD99Tdw8623YLNZY2yz1PJ6lASIrR07drDo00UIKcMaPwqCy6+YQk6O6Q0/rkPjTNA4LXEuJgLNQggmT7444tovpWTduvUsXbrU7CQjnzNBUqZLl8789rf3c9ZZjjZZFhVF4bof/5g77ryTlKTkhPTuSoQnTvV4+Ofbb2n+wzBTEgIKCwq48KKLzA6bg8aZAAQ8KYfDoQBXmRktNzePCy+4IKRXF4ycdXj3X/+iqSm2kERkBLpD40XnLp15ePojjDzzzISSS1EUrrr6h9x+x51YLJZWz9RochnOVRArysrKWPDRQlQ1uH2KDxaLYNKkiaRnmDYYrtK540WwCBiKye7F519wPrm5uWFEqjbp777bybfffmN2cpER0E0mtNlsDr4b2q1bNx5++BGGDhuWgAlqUvySyy7lrp/+JEKZvHmEf/Stw7vvzuP4iRNhzqC9tv369mXkyJFmh5xMUFuFYGJdhomt2SwWKxMnTgorrQA8quT9999rTQ+nFhAhdI/YEXgjc/NyeXzGDAYNHhLm++YghOD8Cy7gnl/8gtTUlIj35mSjvLycZUuX0vJe+u6NzWblsssvNztkCkEpVV5i6Zq9KYoWDyymT9/IVV+Vhw+zfOkysxOLiuCARPzjtLQW83JzmfXkbAYOGhTfmEIwfsIEfvXrX5ORlqanCJtzgkaea2JcDcGQqsrCjxdGyZoQDB82nIKCArPDjvS3Dv0lVg4mlkEhBJMmX4wtyYoMc9UeKVm8eDFHjlSanZRpmHcuhjs+lP0K3fPymDVrNgOKi2MbTwjOPuccfv2bX9Olc2csQkFBEJjeGD98c0wsxUo2bWLbtu0EzjLwrmRmZHD2uHFmh5yMn9HnT6xLMLEMpqenM3r06IixuubGJr744ovEB37beHnJL8hnxown6NWrl+ljRo0ezW9/ez852TltNr22kFwNDQ18/vnnEZ+REIILzj+fpCRTuyCn4Jez50+ss8wcPWjQIAry87ULlf7NwHzYu28f27ZuNTNczJAhz5g49Cgq4pFHHyU7Ozvqd08fOpQHH3qIbt1iJ1VHSOVZtmwZx2prwjpMhYD+/QfQo8j0NpFeDikADocjC20Lt6g455xx2CxWkLpwFi3JtWzZsrbppickUu/DaQY1NTWsXbPWpOTU7U2hvTyPPPpoRCfhkNNO4/EZM8jOjq1lvVbN/B0NDQ0nnVwVFRWsX78+4OkZXX0MpKUmM3bMGLNDTtS55JVYhZhI5ktOTmbo6acD4UVzs0fVLY7EQgJSlV79xdwxkkcefYSly5fRrHrwRCRk4N9GjjyTX/3mN2RmZbX4Zv/+/Zn+6KN0z8vDKhQtp8obCQg9sgp4VJV5777L3Ll/1wLqJk1HlcA9eBIFKSXLli5DamzynsN/XooiGDFiBBZzTeD6oHvhjWdkqrOx3W6nTx+Nf9JQsvyeh0RzwMXZyTcypOEWNa9xCKFQXX2Mp2Y/yZpVqyJKiGCl3mZRmDB+PPf/7nekpPhUzx5FPXhi1ix6FBaaIob3jFKyYMECnn/uOeob6vVjo0ustpZpa1avoaGhQbtu755DPv+WlDB48CBTqgEah04DUPzcDFGJNWLECJJTkgOy7AQCIYU3S6a0tJT6+vrYrs4UAq0XM9QyElirqqqYNWsWe3fviTB6oKUIYFEUzj/vPO775S9JTk6msEchM2bNpKhHDz3z09wcPKrK5198wbPPPKOpCNJcUNnffdlWhkHlkUp2lhrZvCpIiZQqUhpLoiQrK4sh5vx8CrrbQUHrhzQ12hFCCByOUUg1TEWN1DrErFkVOTWjNZBGFNrka+z/MA5WHGTagw+yb38ZqmpeeVaE4NJLL+W+X/2SBx54kP79+sf0lAXgdK7imaef9jmLY2RJW3ngQWu7uXXr1ohWvpCCwUNOMzvkVCDJkFJRczrS0tPp07t3xM4mTU3NlO4oNTuBGOGnssfyYP3mu3v3bmbPnuXNpjT7tCyKwpQrpnDGiBHm44o6G3bu2MkzTz8dVDjSsdzyWzZv1g2cMF5CAcOHDzebamQFTXQNBaK6V+12Ozndumlbb4T4ADTU13PAVRbLNcUAYf7N9fti8M1Yt3Ytr7zyJxoaGzEjtLyla8ROhz179jJt2oOUlQXWd8ZFqzbk4vbt22hobCBSClJhYSFdupqygAuAoQqQhQnHaL9+/bAlJ0PYjSQFrgNlbaRf4Xe95hcFRQgsQQl2UkoWLlzI888/R0NzU0zkUoTAgoje3VnCgQPl3P+737aNIZNgHD5cSc3x42HVAym0IuH8/Hwzw6UAWQpwpplv9+7dR98oKDSklOzbt6+1++pFhK9NTxQ2aCZOhK9KPpg/nzfnzEmsv02XlAcPHWLmrJns2bMncWO3IZqaGnGVaStNy9VIu+dWq5XevU3vA3+mAkRV9y0WCwOHDMFYjkJDUlZW1mZOP196rnlVNtK3PB4Pc998k0WffYYnUXMWUFdfzwvPP8+aNRGMGKEbDx3A+w7avThwIHxrc8NmKioyXSk0xJQ2JoQgp2tXXdcI4wSUkn3xbbdhGjGHTYSIqHA2NjbwzB+e5ssvv8IjW2d5SaCpqYk/PvccX3zxeeQXLMYTtUUQ2h9SSioOht82WiKQEoacPtSsoxQFE2nIycnJZKSnE1ZaSC2rs6rqiKmTxgvNLxVJjW5Z0xgN9fX1PDV7FiudK+OWtgapXvmf/2HBhx9EP0DoV2Bix4kAk6UNk7zKyyPsRy40J2VKiuloQY4ihIjaRaawRxGdOnci/AMTNDe7OX48rs7NpuHztZghlnmS1NbWMnvmLEo2b4lLaqlS8u577/HO22+bi0sKYZIkvr4Ube2giNxHQyKEJDMrwyyxLlHMvKUetxuhyog5Rm63m/r6xGWLtjcOHazg908+ycGDh72xuWgUMb6zbNky/vLnP5s2XGIliX+SY1uhvr4+rMRWpECRgi5ZnU2XzZn6VmZmJiih/EhCWwalxO12t+P+gOElZ2tSAXfsKOWhaQ9w+PDhqMuikQXwzTff8MSMGdTVtdkuuO2C2toa6hsbI8r6pKRksk2WhZkiVrLuv2pxQsNcQNvrJpH57eER6dJbm18KJSUlzHpipqmWPrt27eapJ5+k9nuwDYvb7UZV1fB3VwoUodC1a/RgtBAmM1AUvbTd69tQ9Y+f111VPbjdbbw9bjtEQqSUrFy5glf+9AoNDY1hrcXDhw8ze+YTcXYOjP1C2i61UYPb7dH1wxAKj557Z/TPiAYppfkNK3XDQFeg/aVCy9BOW0FPxTNV/uV9EHGQUUrJB/Pf5x9z5+J2uwOuT5WSE3X1vPD8C2zZsiX2weOAdiVt+1Zp14eWnqS72HzXrWdpSJVjx8w1yzNFLFXVRg7Mh/IjVpvG3/0gWvbvCwt9SvGqvKqq8uabc/howQI8qsSDwK1Ck9vDnLlvRvdVJRDtdHfxPlOJFsfRT6wKPUtLCCwWcz0oTHaqiHxZoTvNJBpGNoLwzkhIwr7IiaiW1npL/ZFt27dz5lkOmpqaWbrkK5YtWdJhOgQmCtozBO2Gtnzeetqf6ZfJFLEMAutD+6dF4v8+tWkHF8OpKKVGYmMaYa9T+vMwbjQ0NDD/vXf5cP77AIkhlN+coj8o6RUebQmL1YKwGI3zDOhU019gCXg8EZsle2GOWNKvXEIKP0XSRyxFUbxNVNsKAl0mGySPFDVp5VIYjERKKOGnRnSU3CybzYZFsSCl/4yCZJg0nyBpilh1dXWoquonkVreDKvVSlKS6d17Y4ZhlXiXwqjX56si6oiQ0rdYh3tYmpdbaRcFKz09HZvNikRFDTqfoqviUgpSUtNMjWeKWM1NzQHPx3cjDImlYrFa9DbcbQjhTyjdigklugM+HY9ZRlqZmfrISKlKiURSUlLEcI2UmoAx614xpRS53W48uvMs9OsjsdqspGekmzpp/DCkldQ30A4TG2w/MypuhNQPgy/D79LM7ErbGmQZZW6hcgz0l7impoZj1eZagpsiVpmrjKqqKjB8HSFgs1rJymxZg5dIGGEUDZE97BKpda5r0xklDgG+QP0SpaotPyJck4wEIj+/O4YMDZl+jqT6aJVpXVMBolY/uJubOXrkKNEeZm5u7O2yY4UqVLR/pPZfid9H1T7634E2TTVpFYKiGHjnr12LVA23itBV/LbNccjNy0Oqfom3IuiDpKKi3CyxShVgRbRvSVVy6NDBKFaYpEcP0zX+ccH7NuHzwof+np8nuSPyysgg9XmHoiQGtu26rigKXbp0DTiPkeDqf+qy/aYzhFeY87xLlV27d2mbLIWr0pGSQnuh6QzD+BCj8iQ6Jq/8nbzgc+eE+p6Umgjz32Mn0bDZbBTa7b65hPkcOGB+w3ErYCrfo8zlwiNVvQzbQODNKCgsxGZLwuNpg0odfecwQ2k3TPFAh23IAxM/l1ZCCIGq30spgpcW1RubM1wNMiFxhPBIS0vzlvYZ8L+lqqrtP71/f/Q+/brwqVOA98yc/LudO2lsaCSkFQYgICe3G527dDYzXMzQ/FiKNy4pjT4DEUjV8SilwbDwwirK3lVA9a5FbbnpQY+iniQlJ4d9tAD1dXW4ykxLrPesgCkffeXhSmqP15CSHCYfR0JyUhL9Bwygorzc1NnT0tLp3bs3Vr0RrIygGNpstpB+ssjOxVMfxlV07tyZ004/3ZszZfwt+OqFhNrjtZQfOGA68bK4uBirxRLxJS1zlVFtwtWgPw+3FVgL7AMiat7HjlWz57tddOuaQ0hZICSKAkOHDmXZkiVRJ1BgtzP9sRn0H9Afq962WgL+bt8Wbh5jjfCzXMLBUPI7JMFCxgoDM0YM01/o2RzFxcW89NKfAscQeszUG5HQ/Hv19fVs27KVZ595Ouo2M0IIBg8e7B2r5VQ1ybmjtFRv4R0V+4C1CpqOFWBnVDsAABfHSURBVFVqSSlZv2F9+KepP/BBg4dE3TNGURSu/a/rKB44UNsfx88A0ANS3k/EXK8O7gQNC7OFt8HfkEH3RvW7b/qyKYC01FTOGHEmP/v53VitkeO3KampFA8cGLYpiNCfx47SUlPzReNSnaL/ENXlAFC6fUcExUVz5PXr14+uUWr8rVYrvfr0Aalq76OeXCbawmPeEQWW9HOHxAn/RDyNUIEVPQpQVNQzar/5goICcvO6R3AjCBAWdu2OuFOvP1YAbsXpdKrABjNHlB1wUd/cpDVrbOGZ1RLCkpNTGT4iclfvZrebvbt3a85AVdtzx3DE+RPBuEHBH38EpEoHf/y82B0KQoQglW6MeGuDjKsVAV/xd6h6v6G7JKQqUVWJR0o8UmX16tVR6xBGjRmDUCxIwIP0foT0gFTxSDhSVcXBigh1h4HY4HQ6VeM5LcDEcniwolzbmziEGNBtF6SE0aMi96yUqspb//cPb0Az4O2VcXzCnijaFZ08GPG3MH8M+QmUKjLob/rlCi3jd8PGDcx54/WInnJFUTjTMUqbS3Cau98zXr58KUeOmCpGdqNxySsAjgNRk5k9Hg9bt27R3pgQMHKmTx86lC5dukQcy1VWxozHHuVo1VH9WOkdI5IJHqp90ikHgTdUE/e1Bt0npNb21+3xsGnjBmY/8XjUPvv5djt9+vXVVrsgI8dYWD0eldWrVpm9smo0LmnEcjqd+wCnmSO//eZrautqtTxo/QOaOFakiiJVunbuzPAzzog61uaSTUyb9gDlFQf1lUDrWiwU0eITC7yFDx1VZHkJAUgFpIKUAqnqHxMvV4shBQipsHrVamY8+qippevss88mIy3dp5/5NekVukP6WE0Nm0s2Rx1LURTy8ro7dS4FqCwfmrkne/fuZdeuloqc/wULARdccKGpHUW3bC5h+sPTOHToIK2tCQycUGKGaRMYUYQg/SleSLTlb+3a1Tz95CxTO4KkpKQwbsIELZIRUhfVnsXmkk2mKnNUVeXgwQovh/yJtRQTepa7uZnS7dujnmjQ4MHYC1vsjxgSpdu38ej0Rzh48FAMXdxPXQghdN8TYSWQWah65kHJ5k089eQss7oQA4qL6d2nN0YUo+UcNINqw8YNeDxh+s76f1sINxqHgEBi7QTWm5nU0iVL8HjcKKgoUqJKHx20tBXI7JTF+HPPMzMcAFu2bOaR6Q9x5MgRVDTLxn/HhGjhjxbLRAfWv1R/S0Wo2ieO10kVmj+5ZMsWZs6YYTq7UwjBJZdeRootBUWG7k8opUp11VFWfP21qTGllOvROAT4EcvpdDYBJWYG2bK5hP379wf6UnwnQLthgkmTLtb6PpjE1i2beezRRzh0+LB3rLZwbXUIhPL3xqDIG59t27by5KwnOBihv1Uw8rp3Z+zZ47xp26GJJdm0YX0sGQ0lOoeAlm6htzGzCYKUfLxwIUjhe/ukEYTwmdG5eXlcNNnUvppebNywkdlPPOHttWWQK250SAdpyxL0WK9RBfbs28tTs2d62zyaxcWXXEpKaqo3AuATDtL7/83Nbr7+xpy00qfztv8vgq9vMSal1tKlS6g5UasroIq2pYdUfSa0W0VV3Vx+xRVkxCC1QLJh/TqenD2bqupjmvNU6rtGhNhWJNJyKGXHLKYw7hEqXkswFmZJFA4dPszsGTPYF2Pz3OycHM6/8CLdMvWgbRagpyB5/WEKFeXlLF9meuuaEjTueBFALKfT2QC8b2akQwcPsnzZct9NCrgzvp8L8gu4aOLEmILBUkpWr3Ly7NO/5+jRKu138RRtdjxOeRGpYX80HDp0kEenP8yOGHvqG7pVbre8oOKMwJdSlSpff72MBvP9zt7XueNFqAzStzEZlJ4//30amvSeSkE3yr/86sqpP4jqMA01/jdfL+PlF57nWPVRPyezuSfSkfUyr1MlxklK4FDlYR5/fDrbtsbekKR7fgEXX3IZimKEj4JH1+575eHDfLTgQ7MTdBO0DEJoYpUCi8yMuOu7nXy9fLnPEalXAigSLBIUqd3A7vndueSyK2JOYZFSsvirL/nTn16i5vhxPKh4VBUPoZ2f/k5b1XBcdEip5ctu8BaA+H1CvTyqUKiqrmbG44+xZUt0h2WLMwrBFVOnapsAtFAd8HX+UOGD+e9TXh6+i3IQFhGiIKcFsZxOpxuYhwkl3u128+bf3uBE3YlA/1ML6aVw5Q+upqhnT7OT9UJKyWeLPuVPL72gNTjzEsVMKyPte6c0hEBFcuRIJY889CAlJZviGqZf//5ccsklWEIVVvvsLxqaGln40YdmfWsqME/nTADCFVO8i59PIhJcZftZ8e23/vMLgNDr4jLS07nx5lvj6u8gpeSzTz/l9ddepbGxSZN8RjZEFHRIWgnCSqZgqFKl8sgRZj4Rn6QCrcr5xptuISUlFamGzp83VI13/vkWxyI2ug3ATjSutEBIYjmdzmrgRbOjvzvvnYAd0aVfDFFLtNJk7OhRo5gQg9PUH6qqsuCDD/jb396gsdmt1d5FY1bbluK1AvqkovBKolB1tJqZMx5nw3pTvuuQuOiiiTgcZ2ERAgsWb3zSG6cUAlVAzfHjLFr0SSxDv6hzpQUilX/9BS3NNCq+27GD996dF9HZrQiBzWbj5ltvpaDAbmbYFlBVlXfefos5b7zmTQeJZC1KlbCZGCcTqscDhvskzD8AR49WMeOx6WzcaCpdLiTshYX8+IYb9LI8EbIkTstyFny8cAHlEXaoCMI+NI6ERFhi6V7Up8ycQUrJvH+9w8FDoUIKmgViXEy3nG7c8ZOfkpKSamboFlBVlbf/7x/M+dsbNDc3ayLcX0J6ITh+/DjHao7FdZ62xP79+3F7VKRQkIoImVVw+MgRZs58vFWkSktL52d3/zfZ2Tm6o1mLiBB0PlUI9u7fyztv/V8swz/l72kPRsTqUrvdfhS4Foja7aOxsZGqI0c4y+HAYrMghfTm+2sw2goJ8rrn09TUxJbNpnyxLSClZHPJJiQwZOhpKHqRrC9AoeBxe5j3r3dYG2lPm5OEo0erOG3oMLoXdAfwZs5qL4jC4crDzJr1BOvXrY37HIqi8OMbbuTCiZMRikWvUdHvkOFx18/Z3NzEC88+y07zfrFDwDSXy1UV7gvRiFWFVmxxMSa0lbKy/fTp04+evTTrzxCx2s++w4ViYdCggeza9V3M4QgDUkq2bC6hvq6OAQMHkZSUggSEUHB73Hzy8ULmvvm3Nt2NLF6oqsrmzZsYUDyQbnl5SKkHpoWg3OVi5hOPU7JpY6vOMW7CBG67406vsWQYPNpS6OsdJoEvPl/EvH++HYsleD/wqcsVPo4YlSwOh6Mr8C0wwMxZC+x2XnjxZTIz0/3WWYGC4mswoQpUVCoqynl42jT274stLBFwAULQs2cvxk2YQNfsbI5VV7PK6WT7tq243ebaGp4spKenM2rMWE3KKwqbSkpYvmQxR4+aaxUUDsWDBvHw9Onk5OQSLKVA9y/qS+6BinLuu+fnVJlMt0HzWY1xOp1hpRWYIBaAw+G4mxisxImTJ3P3vfeSbE3y/s7bC1C/QKMfzLZt25k54/E4+6X/B8Ho2bMX02c8TkGBXW9/pLX29G6mLoRWJYTgaG0N0x9+gK2xqST/7XQ6X4r2JVMdPOx2+0ZgNGBqJ8Tdu3aRnp7OwIGDvL8LbhxmLI1dsrPp0bOItWvW0NguO1t8f5Gbm8dDjz5GUVGRHk32Uz+M+6+vdh6pMm/eO3z5uakgi4HPgd+4XK6oS4EpYrlcLrfdbt8PXGfmGCkl27dto3ffPhTY7Qi0bW+1JVx6xbBE66BSkG+nwG5n/bp1Af6w/8A8snNy+N2DDzOguNgvDtmSWLptyNfLl/HqX81vLAU0AXc6nU5TjnPTPYfsdvseoAsQubZLR3NzMyWbNjHm7LP1ZD9DeTQuUIPAghAKhUVFFBX11CTXf8gVE7pmZ3Pfr37D8GFDUUSAmeT7SX+xVSnYu3cvs2c9Tm1tTHsAPQ/8JZLC7g/TxHK5XNjt9m+Ay4A8M8fU1dWxbetWRo0eTaq/38rba0AJuAkFdjs9e/Vi08YN1J/iu2m1F/K6d+cXv/glI0eODOpq3TLsICUcqTrCk7Mex+WKyRqvAG52Op3Rd67SEVOXNJfL1WS32+uAKZhU/I9UVnLkSCWOUaO9TdmM3lZeke31Bku6d7czYEAxmzZt5EQbb6x5qqOgwM60hx5myJDTNFJ5l4FQpJLU1tbywnPPsnHDulhOowJ3O53O5bEcFHP7PbvdvhlIBc42e8y+ffvwqCqnDxuOUCwIFC2EiO9j6JmKIsjPz2fEmSPZsGGD6U2B/p0ghGBA8UAeenQ6vXr09IWG9K3fDAvQP5Tqdrt5443X+OrLmPcAehp43uVyxbSDQszEcrlcqt1uXw9MBLqbOUZKydYtm7FYrQwaOCjw7ZIB//GiU6fOjBg5kvLyA7HEr773sFgsnH/hRdx9733k5eVikZoB5HVDe61vw0DSNil9+61/MO9f/4x1h431wE+cTmfMS0dcDUNdLled3W7fjbYkmto1QPOUbyY9I4Pi4oFeRV5KiVR8wRjvR0JGRgajx5zN8ePH2b3ru+/dxkixIiUlhR9ecx033XIrmZkZIFXv5krePjNC+z/Qyuc8Hg/vvTePv8+dY6o+0A81aFZgXAlgcXeitdvt36GFeyZhUt9SVQ8lmzaSmZVF7379fKXzuiWjBC2PArDabAw/YwS5ubls27a1nXZx7XgosNv5xa9+ywUXXojVpm2mpCBA6D1njA3MhUQKrWOM2+3m44UL+Nvrr8Ya2jLCNv8wawUGI25i6VbiOiAHOMvscR6Ph40b1pOckkL/AcVYrBafJyLou4ZYVxSFPn37MmzYMMrLyzl86FCrqodPJVitVsZPOI9f3Pcr+vbth1Wx4NuxUSCE4uf8NKIaEre7mU8//pg3XvtrPO6bV4CZTqczJhHnj1b1zna5XB673b4IGIHJWCJo5CrZuAGrzcbAQYNRFP/shED4GzrZ2TmMPXscaenp7Nm9+3stvYQQFBb24M67fs7V1/wXGRnpWAx3gvD+CyF8EVkjNcbtcfPhB/P52+uvxXOPFqC5FloVvW91U3ZdmV+Fpsyb2+IcLcK/pWQTbreHwYOHoChWkMK7CwL4k8qXO5RkszFo0GDOdDhoaGjAVbY/Vt2hwyMzK4vLp1zJz35+DwMHDtT25Bb+KYA+ZUEIoRVHoBGrqbmZee/8k7+/Ocd0c1s/bANucjqd0buKREHCEncdDkc/4CNikFygLXPnnncBd9z1MzplZoUtuPOPzktV6w+hSsnG9euYO+dvlJZuO+WV+9S0NM6dcB5XTJ1KQUGhpkMpup5g5OhFeGQ1x2t5c84bfPrxwnhetlLgUrMhm2hIaEa4w+EYAKwCYt6taeCgQdz7y9/So7DQmxwYEJwILgeXEikEUqp4PB5WfPst89+fx47S0g6fLuMPIQRZnToxZuw5XHb5FIqKeiCl9JNOeI0b4/ugS3M9h0tVVY4cOcLzzz0Tb3JgDXCW0+mMrQI2AhK6P4mecVoOXBLr2JWVlaxZvYr8/ALy7XY9ac9HLu92K/5SSUqEkAhFUFTUk3Hjz6VfvwHU1dVRdeSI6W1mTwaEENgLC7l8ylRuv/Muxo0fT+fOnfTiE8NtEJgsif/Puj6lItlUspHnnn06riJWtODyz4GvXC5XwiyihEosAIfDAXAz8D9AUsQvh0BqWhpX/+gafnDVD7FZrL74l9EcpEXJteqX2yuRKng8KgdcLr7+ZhlffPEZhw4f7BB6mCGdTj99GOedfwFDTjtNj6GqAd8x+rZ7oxPeHCrtUg1PVVNzM4sXf8Xrr/6F47Wmw3j+aALuAt5wOk01dDSNhBMLAsj1MmBur9cgjBo7lttuvYP8fDsWRdEkVcjZGlXY+JYQPZIvkTQ3N1GydTMrvv2GDRvWc+hgBU3NzS0J2kawWq1kderEwOJBnH3OOIYMOZ0uXbr4DDvpdw26hJb+Vh8+YhmXqyI5VHmIOXPeYOnir+J1vdShSaqEkwraiFgADodDAc5F84nEpNAbyM3N4/obbmLcOROwJWltJ4PL9AX4Wm8bv2jRqFVT9Jubmygr28/mkhJ27ijlu+92cvjwYRobGlrdWQ8EiqKVuGXndKOwsJBBAwczcOAgevbqRXJKClahOTKlAEuYWy+ECChp818KFakVrSxdvpz/e+tN01vLhEAp8FNgsd6OPeFoM2IZ0K3FD4GB8RxvtVoZe/Y5XHf9TRQU2L1GkgGBLnykn4sirENM6xQIWkZrfX29d98Zl6uM/fv2cejQQaqqqjhx4gRNzU1IVeJRfcuoIgRWq5WUlFRSU9PIzskmJycHu91Ot2655Ofb6dq1K6mpqSiIsGQN18cimFjarLUe7q59+5g7dw6rVjtbY6BsAy5PlPUXDm1OLIjfFeGPTp27MPUHVzF58qVkZqTrKTe6ohvUnM3XQ0JbGr1LTpBUErpVaRgGxu8QgsbGRpqam7UmJAHEUrBaLaSkpGLxWqqqdxmWehqQIiLVAocmlkQjrhE8VoSCR6rU1Nbw/nvz+PSTj+PVpQwk1KUQCe1CLACHw1EITAduxeRe1KGQX1DA1Vdfy4QJE0hKTvY9IONKDAKh/VcJiPjTUoL47bOiuTG8fwC9EEGbrZ6K4kdiRZeCga0yQ1hwIdCigZwwUtMERge06mPH+OLLz/hg/vvePmFxQgVeAx5zOp3x1dvFiHYjFoDD4UgCfiKEmCGljHtnckVRKB44iClTr2T4iBGkpKT69BC0h6NK6c2SiNw+STPakcGkM7zbqq8mz/8o6UskCEesSAggu346VT/j4crDfL7oU7768nMOtr56qQZ4GPhzpMrlRKNdiQWaxWi1Wi+TUr7u8XhMh4BCQVEUehT1ZNLkixk34Vwy0zOwKFrhhrdlg/RbXqRsUS2kSRw1wDjT4BOB/s7ZAMno/7PxY8iWOy2/B3itVxRBs7uZXbt3seiThaxcsYKaxLQGqARuARa0heUXCe1OLAMOhyMHzWL8Aa1YGg1kZmYyduw5TDjvXAb0H4AtKcUnxYQmwaSUXmushSc/Avz3wvY/zmwjOcP/BL6IlTGfqiNVrHSuYOnSr9i+bRva1sSthoq2C9eURMT94sFJIxaAw+GwAr8D7iWGAHYkWK1W7IU9cDgcOBxj6NW7N0lJSV4F3iBWKGIEk8dAgMSKB3rzNFXVMjsOHHCxZUsJa1Y72bZ1K8eP1yYkDUgL1CuVqup5HnjW6XSetIqUk0osAw7NozobOD+R41qtVvK65zN02DCGDx9B/379yerUCZvVqrW0VJQAizDAMvSD8Cej/jt/VSqYFFJKULRon6pKTtTXsW//XjasX8/qVStxlZVRX5/4Zy6E+FII8cCKFSvad90LNZeTPQEDDocjC7gR+BXQK9HjCyFISUmlsEcP+vXrT3HxQPr07kN+fgGKRUGxWLz6l1FQa8AiNXGn+rsv8Fly3l6eqorb7ebwoUO4yg+wa9d3lJZuZ9/evVQdqWzL7Is9wDPAHKfTGVOxYFuhwxDLgMPh6AP8Bq3qOm7L0QwsFitJSUnk5uWRX1BAbm4uXbtmk5XVifT0NDKzshBCq3xByoB4Y11dHVVHq6iurubYsWqOHDlCRXm5FjJqasLj8bRHlmsN8A/gaafTaXoL1PZAhyOWAYfDMRAt7/p6IPo2Ym2IiH6wkwM3MBet+dm2kz2ZUEho2kwi4XK5Ku12+8fAWqAvkE8HfhHaCSpavtvdwHNOp7PDtug5ZR6Uw+G4BC3F41zaeInsgKhB21Lkf5xO58KTPBdTOGWIBd50nIFoCv6FtIGS38GwB6110DPAtvZ2crYGpxSxDOgE6wz8CLgKTYrFnFTYQdGEJp3mAf8Eqk8lQhk4JYnlDz3vy4FWlX0ZmkQ7qcp+HHCjpbMsAOYDzrbKk2ovnPLE8ofD4UgBTkPrPnglcCaQQQJCRgmGirbb+2rgPbTwS0nwDlqnMr5XxAqG7hMbAIxDK/DIQtPL2ptoKpq+VAMsBJYBpR3N95RIfK+J5Q89ZceKtmx2BS5HI9iZwOAEn24LmjRS0bJnqwAn4G7P1JWTif8HtTOiXFca7sUAAAAASUVORK5CYII=;" vertex="1" parent="1">
          <mxGeometry x="200" y="360" width="80" height="80" as="geometry" />
        </mxCell>
        <mxCell id="kbRRC70znKYidf6P-xsW-3" value="" style="outlineConnect=0;dashed=0;verticalLabelPosition=bottom;verticalAlign=top;align=center;html=1;shape=mxgraph.aws3.android;fillColor=#8CC64F;gradientColor=none;" vertex="1" parent="1">
          <mxGeometry x="323.25" y="558" width="73.5" height="84" as="geometry" />
        </mxCell>
        <mxCell id="kbRRC70znKYidf6P-xsW-4" value="" style="shape=image;verticalLabelPosition=bottom;labelBackgroundColor=default;verticalAlign=top;aspect=fixed;imageAspect=0;image=data:image/png,iVBORw0KGgoAAAANSUhEUgAAAMgAAADICAYAAACtWK6eAAAACXBIWXMAAAsTAAALEwEAmpwYAAAAAXNSR0IArs4c6QAAAARnQU1BAACxjwv8YQUAAAvBSURBVHgB7d1LbBXXHcfx/9xrpKoNkRGPupeN2RQruOFGDVGWGDbdtNBFs2hAIWqrJHQBkapWVRABlUrZAa3qgpBK2qZRlzZs0gXgLFJFgqoTCRpfNrgLHBRYEEEWAftOzn/sY8b2nbnzOHPOmTm/T+T4dR8Y3y9nnmc8UmRkpD3cWEM7vS5tJ492irdBj2gwCGiQAMrk0QwF4ZsvXm+fdLs0NT3tz5ACHhUwPNwe/OZTdMjz6ID4ww0TgC04mi5NzM/T6SKx5ApkZLS9s0n0tvhwJwHYLqB3RSjH84SSKRBejBoYoJMB0V4CqJocoTTT3nB0tH2o0aR/ijjaBFBFHrXFa3jvxg1DX9y9e8dPc5dUgWz7XvukeHdMvH2DAKptUKwz7920cWhQRPKvfjdOXMTilfBvPUVXCKMG1JO/ZoDGfN+/H3eD2EAQBzgiMZJG3L0QBzii/XgufK331HMdZHGdA1uqwBVDceskqwJ55pn2AbES8w4BuMSjFzdsHPri3t07Hy//cgTv52iuEcMN9oqDm+7Pz9Fz0f0ky9ZBmk2xdxxxgLsGG2JHePQLSyNIOHoM0C0CcNw80dj0dX+KP14aQcLRAwBo8TjDUDiCYPQAWE7sG1nH+0bCEUQsdx0mAFjyaG6hiTAQsVl3DwHAEtHEK+F7LF4B9Nad94YbjQZOegLoxfOCsYZYyMLxVgC9iDYaYjPWdgKAVbiNhvj/MAHAaqKNBg4tAYgR0GCDACAOAgFIgkAAEiAQgAQIBCABAgFIgEAAEgwQGLF27Vrau+eHtHVka/h5Z7pDl69M0e3bswT28LaNtgMCbTiMg2+8Rvv3v9zz++PjZ2j8z2cJ7NDctGnoGIEWHMf58+do966x2Nvs2PE8tTa36PLlKQLzEIgmMo6RrVv73nZELHYhEjsgEA2yxCEhEjsgkJLliUNCJOYhkBIViUNCJGYhkJKoiENCJOYgkBKojENCJGYgEMXKiENCJPohEIXKjENCJHohEEV0xCEhEn0QiAI645AQiR4IpCATcUiIpHwIpACTcUiIpFwIJCcb4pAQSXkQSA42xSEhknIgkIxsjENCJOohkAxsjkNCJGrhnPSUqhCH5C2/ujcUgEBSqFIck5MX6a0jRwnUQCB9IA63IZAEiAMQSAzEAQyB9IA4QEIgKyAOiEIgESbiGB8/m2uiOMShB6YeXWQujjNLn/OMi2kgDn2wJ53siOPq1Wt8Ye5wZsUkReJotb5Du3ePhXvb+Weenf2MIJnzI4gNcTz5+sLX4kaSvHFs3tyiE787viq+27OzNDlxAXMBJ3B6BLEpDiluJMkbB48W7//jb7Rly5ZV33ta/PyYCziZs4HYGIe0MpIicZz/y7nwZ+13O0TSm5OB2ByHJCPh9YQy44jeHpGs5tz1QaoQR1FZ44iamLxAR468TbDAqREEcaS7P0aSJ5wJBHFkexxEssCJQBBHvsdDJA4EgjiKPa7rkdQ6EMSh5vFdjqS2gSAOtc/jaiS1DARxlPN8LkZSu0AQR7nP61oktQoEceh5fpciqU0giEMflyKpRSCIQz9XIql8IIjDHBciqXQgiMO8ukdS2UkbEIc9du8ao1arRXVUyUAQhz0ePHhAB179Bc3OzlIdVS4QxGEPGUen06G6qlQgiMMeLsTBKhMI4rCHK3GwSgSCOOzhUhzM+kAQhz1ci4NZHQjiUI+3Nv39vfcpKxfjYNbOrIg41OM45CZZfsGnnQvY1TiYlXvSEYd60ThY2rmAVcTBcwI/ePCQqsi6EQRxqLcyDqnfXMBF4tix4/vicV9fFiBHOTl5gSYmL1JVWDWCIA714uKQ4kaSInH85te/oqNHj4STZkfx57t2jdHap9fSRx/9m6rAmkAQh3r94pBWRlIkjt+fOE4vvfSTxNtsf/bZyhzgaEUgiEO9tHFIMhL+cxaJY8+eH6W6bVWOAjY+Ny/iUC9rHFF8VG6e+2WJI8r2uYCNjiCIQ70icTBevMoqbxzM9pHEWCCIQ72iceRRJA7J5kiMBXL2zJ/ClTVdEId6KuKQbI3EyKEme8Vfar8dVCohDvVUxiHx6+KEeFybGAlk3/6fki6IQ70y4pBsi0R7IPzC0bXegTjUKzMOyaZIjASiA2/XRxxq6YhDsiUSIyvpP//Zq1Q2eZjD1Wv/obIhjnLYsOKuPZBHjx7Rjheep80apomRGwLKjARxlMt0JEZGEE/8xwet6VBmJIhDD5ORGAlkutMRi0Cbwx9chzIiQRx6mYrE2I7Cy5evVDYSxGGGiUiMHotVxUgQh1m6IzF+uLuJSDqdm3Tr1gxlhTjswL8HPgT9moYtlFbMavLWkaM0qek0TH6eSyLKrBCHPfhclfdyzMyShzVnFOoYSTgOjjErxGEPjoP/bvIclp+HVeeklxkJ4oiHOOJZN+1PGZEgjniII5mV82KpjARxxEMc/Vl7CTYVkSCOeIgjHavn5i2ydQtxxNMdx/R0vlkZTcfBrL+IZ56RBHHE0x0H/y5ef+OXqaY5jbIhDlaJq9xmiQRxxDMRh/xdpJ0LmNkSB6vMZaDTRII44pmMQ0oTiU1xsEpdJz0pEsQRz4Y4pKRIbIuDVSoQ1isSxBHPpjikXpHYGAerXCAsGgniiGdjHFI0ElvjYMbn5i2CT+znuV2zQhzq5f2Hat++l8NrhtgYB6t0IHkgDvXyxlEFlblOugqIQ706x8GcCQRxqFf3OJgTgSAO9VyIg9U+EMShnitxsFoHgjjUcykOVttAeOpRxKGWa3Gw2gZy+/astqlhEEd9VXJPelo6JoJAHPVW60BYmZEgjvqrfSCsjEgQhxucCISpjARxuMOZQJiKSBCHW5w6FosVmQgibxxFNjUjDrOcGkGkPCNJkTjOnz9HG9avzzyrPOIwz8lAWJZIisbBV/XNeukFxGEHZwNhaSJREYeUNhLEYQ+nA2FJkaiMQ+oXCeKwi/OBsF6RlBGHFBcJ4rAPAlkUjaTMOKSVkSAOOzl3Tno/Bw++RhMTF0uNI2p8/Ex45DHisBMCUSBvHCYgjmyc21GoGuKoNwRSAOKoPwSSE+JwAwLJAXG4A4FkhDjcgkAyQBzuQSAZ8ATLnembZDvEoQ72pGekYyKIIhCHWggkB1sjQRzqIZCcbIsEcZQDgRRgSySIozwIpCDTkSCOciEQBUxFgjjKh0AU0R0J4tADgSikKxLEoQ8CUazsSBCHXgikBGVFgjj0QyAlUR0J4jADgZRIVSSIwxwEUrKikSAOsxCIBnkjQRzmIRBNskaCOOyAQDRKGwnisAcC0YwjIc9bmlkxik/IOnX6j3Ty1B8I7ICJ4wxptVr0gohk68h3w887nZt06dKVMBKwBwIBSIBz0gESIBCABAgEIAECAUiAQAASIBCABAgEIAEHcp8AoKcGeQgEoCePZhoUIBCAngIRSED0IQHAKqKNT3gRyycAWK1LfqP7mKYIAFbpdmmqMT3tz/DKCAHAE2L9g9sI94N4Af2VAGBJ4NEkvw8DGRigUwQAS7pzC02Egfi+z5t6pwgAePHq3XDVgyKHmnhExwkAaH7+SQtLgVy/7k+JSCYIwGWR0YMtO1hxbo7eJBybBa4SW66iowdrRj+5d+/O/U0bh74Sy1s/IADHBAG9+emn/lT0a82VN7p7987H3940tE58+CIBOCIgOv2/G/47K7/uxd1h22j7v+JdmwDqLiD/xg3/uV7fij1has0AjYl3OE4L6k3E8eWX4Wu9Jy/pvu12e/DxHF0hjCRQR4txzMz4sRumPEphdLR9SiyjHSKAmgjXOa77h/vdrkkpfP75nQ82bhj6v8cjiUeDBFBRHu/GCOi3YoX8WJrbpwqEia1b/vr1Q5MNj9aJZ8EiF1QO7wgX+/p+LDblfpDhPtmNjLSHm006Ju79CgHYj48SOc5Hi1BGuQKROJRGgw57Hu0RjzRMALbwaIZP43j4kE4lrYT3fxhFFmPZKT5sew3aHgYTIBooF69TBF64XnE/6NKHYqXB57Nko8dTFfE1PN4DfL0o1TIAAAAASUVORK5CYII=;" vertex="1" parent="1">
          <mxGeometry x="490" y="558" width="80" height="80" as="geometry" />
        </mxCell>
        <mxCell id="kbRRC70znKYidf6P-xsW-5" value="" style="dashed=0;outlineConnect=0;html=1;align=center;labelPosition=center;verticalLabelPosition=bottom;verticalAlign=top;shape=mxgraph.weblogos.github" vertex="1" parent="1">
          <mxGeometry x="323.25" y="360" width="75" height="75" as="geometry" />
        </mxCell>
        <mxCell id="kbRRC70znKYidf6P-xsW-6" value="" style="dashed=0;outlineConnect=0;html=1;align=center;labelPosition=center;verticalLabelPosition=bottom;verticalAlign=top;shape=mxgraph.weblogos.github" vertex="1" parent="1">
          <mxGeometry x="310" y="107.5" width="75" height="75" as="geometry" />
        </mxCell>
        <mxCell id="kbRRC70znKYidf6P-xsW-7" value="" style="whiteSpace=wrap;html=1;aspect=fixed;fillColor=none;" vertex="1" parent="1">
          <mxGeometry x="280" y="520" width="160" height="160" as="geometry" />
        </mxCell>
        <mxCell id="kbRRC70znKYidf6P-xsW-1" value="" style="dashed=0;outlineConnect=0;html=1;align=center;labelPosition=center;verticalLabelPosition=bottom;verticalAlign=top;shape=mxgraph.weblogos.github" vertex="1" parent="1">
          <mxGeometry x="250" y="480" width="75" height="75" as="geometry" />
        </mxCell>
      </root>
    </mxGraphModel>
  </diagram>
</mxfile>
